<?xml version="1.0" encoding="UTF-8"?>
<!DOCTYPE svg PUBLIC "-//W3C//DTD SVG 1.1//EN" "http://www.w3.org/Graphics/SVG/1.1/DTD/svg11.dtd">
<!-- Creator: CorelDRAW X7 -->
<svg xmlns="http://www.w3.org/2000/svg" xml:space="preserve" width="203.2mm" height="127mm" version="1.1" style="shape-rendering:geometricPrecision; text-rendering:geometricPrecision; image-rendering:optimizeQuality; fill-rule:evenodd; clip-rule:evenodd"
viewBox="0 0 20320 12700"
 xmlns:xlink="http://www.w3.org/1999/xlink">
 <defs>
  <style type="text/css">
   <![CDATA[
    .fil4 {fill:none}
    .fil1 {fill:#05C213}
    .fil3 {fill:#A664FD}
    .fil2 {fill:#FFB800}
    .fil0 {fill:white;fill-rule:nonzero}
   ]]>
  </style>
   <clipPath id="id0">
    <path d="M1907 5736c0,-102 6,-179 58,-269 24,-40 49,-63 84,-90 7,-5 14,-9 21,-14 8,-5 39,-21 48,-23l7 69c10,75 25,113 52,179 4,9 7,16 12,25 4,9 9,16 13,25 31,58 69,107 111,157l106 104c27,24 70,55 99,75 44,32 79,47 121,72 48,29 160,72 216,91 160,53 352,80 520,94l146 7c53,-1 100,2 154,2 151,0 552,-16 708,10 39,6 66,13 99,25 14,6 28,14 38,24 7,6 10,10 13,19 16,45 -15,132 -33,174 -24,55 -34,74 -62,126 -47,86 -114,189 -176,262 -5,7 -10,10 -15,17l-84 74c-38,29 -71,49 -112,74 -188,113 -403,186 -630,186 -125,0 -229,-21 -327,-48 -48,-14 -95,-30 -139,-50l-65 -29c-66,-33 -117,-59 -180,-101l-198 -152c-36,-36 -72,-65 -110,-106l-210 -259c-30,-39 -102,-162 -123,-204 -51,-102 -72,-145 -111,-265 -25,-78 -51,-200 -51,-281zm2001 -1676l60 0c97,1 162,8 251,75 62,46 129,126 164,195 5,9 8,15 13,23 38,77 68,148 90,233 45,176 53,384 -30,549 -9,17 -15,29 -25,46 -26,43 -65,82 -105,112 -43,33 -92,56 -146,69 -122,30 -244,15 -361,-18 -61,-17 -125,-38 -181,-66 -28,-13 -57,-25 -85,-39 -54,-27 -106,-59 -160,-87 -27,-14 -51,-30 -79,-44l-121 -65c-13,-8 -27,-14 -40,-21 -28,-14 -55,-28 -83,-41l-127 -58c-9,-4 -15,-6 -23,-9 -38,-15 -72,-30 -112,-42 -17,-5 -31,-9 -48,-14 -19,-5 -139,-38 -150,-35 -7,2 -47,46 -56,54l-49 58c-32,41 -63,84 -87,130 124,0 214,15 328,43 13,4 24,7 38,11 59,16 122,32 183,45 26,5 53,8 78,14 0,15 -31,219 -34,226 -12,-3 -25,-3 -38,-6 -83,-13 -165,-36 -244,-57 -93,-26 -230,-57 -344,-45 -9,1 -38,-5 -38,8 0,140 61,263 158,361 12,11 21,20 32,32l52 44c7,5 11,9 18,14 175,131 370,194 596,226 307,43 591,25 902,25 138,0 341,2 462,56 14,6 25,11 39,18l35 22c24,18 39,32 60,55 30,34 63,102 63,165 0,78 -2,105 -23,180 -16,55 -41,107 -67,158 -84,170 -213,375 -363,487 -50,37 -101,70 -155,103 -32,19 -63,35 -97,52 -32,16 -64,33 -99,47 -108,43 -228,83 -348,97 -82,10 -122,12 -183,12l-63 0 -5 0c-112,0 -256,-28 -362,-64 -14,-5 -28,-9 -41,-14l-114 -44c-49,-21 -95,-46 -142,-71 -46,-23 -90,-52 -132,-81 -37,-24 -90,-60 -123,-90 -10,-8 -20,-16 -31,-24 -6,-5 -9,-8 -15,-13 -4,-3 -9,-7 -14,-11l-108 -102c-5,-5 -9,-9 -14,-13 -6,-5 -8,-6 -14,-12l-77 -83c-17,-18 -32,-37 -48,-57l-48 -60c-38,-51 -77,-101 -110,-155 -7,-12 -14,-20 -21,-32 -38,-62 -72,-124 -104,-189l-42 -89c-5,-12 -10,-25 -16,-39 -5,-13 -9,-25 -14,-38 -10,-26 -18,-51 -27,-78 -36,-108 -61,-226 -66,-342l0 -82c2,-38 6,-77 13,-114 13,-72 36,-136 70,-198 38,-71 94,-128 159,-175 54,-39 118,-67 183,-85 12,-3 42,-12 54,-12 7,-30 22,-56 33,-84 14,-33 43,-86 62,-114l47 -67c9,-11 18,-22 25,-33 -15,0 -20,-2 -34,-2 -12,0 -24,0 -35,0 -13,0 -17,-3 -32,-3l-172 -2 0 -229 58 0c58,0 122,0 178,5 12,1 25,-1 37,0 68,3 134,9 203,17 13,2 14,-3 23,-11 63,-57 164,-119 236,-167 55,-36 133,-74 190,-103l50 -23c51,-25 102,-44 155,-65l164 -56c18,-6 38,-10 57,-16 150,-44 348,-78 506,-78zm2 229c108,0 146,-14 223,80 62,76 106,177 130,273 22,89 25,127 25,220 0,106 -39,226 -133,267 -26,11 -39,13 -71,18 -51,7 -140,-5 -186,-18 -62,-18 -96,-31 -154,-55 -47,-19 -121,-56 -166,-81 -42,-23 -123,-71 -157,-88 -16,-8 -29,-16 -45,-24 -41,-23 -196,-105 -233,-120l-98 -44c-15,-6 -32,-14 -48,-20 -17,-7 -33,-13 -52,-19 -18,-7 -34,-12 -53,-19 -17,-5 -36,-13 -53,-17 8,-11 91,-59 108,-69 38,-22 77,-42 116,-62l61 -28c72,-30 107,-49 191,-77l65 -23c11,-3 21,-6 33,-10 45,-15 133,-36 179,-45 97,-19 216,-39 318,-39z"/>
   </clipPath>
 </defs>
 <g id="Layer_x0020_1">
  <metadata id="CorelCorpID_0Corel-Layer"/>
  <path class="fil0" d="M18657 5190c-6,0 -11,-2 -15,-5 -3,-4 -5,-9 -5,-15l0 -166 -60 0c-5,0 -9,-1 -12,-4 -3,-3 -4,-7 -4,-12 0,-6 1,-10 4,-13 3,-2 7,-4 12,-4l159 0c6,0 10,2 13,4 3,3 4,7 4,13 0,5 -1,9 -4,12 -3,3 -7,4 -13,4l-60 0 0 166c0,6 -1,11 -4,15 -4,3 -9,5 -15,5zm137 0c-6,0 -10,-2 -13,-5 -3,-3 -5,-8 -5,-13l0 -185c0,-6 2,-10 5,-13 3,-4 8,-5 14,-5 5,0 9,1 12,3 3,2 5,5 8,10l76 140 -10 0 76 -140c2,-5 5,-8 7,-10 3,-2 7,-3 12,-3 6,0 11,1 14,5 3,3 4,7 4,13l0 185c0,5 -1,10 -4,13 -3,3 -8,5 -14,5 -5,0 -10,-2 -13,-5 -3,-3 -4,-8 -4,-13l0 -142 6 0 -64 117c-2,4 -4,6 -6,8 -3,1 -6,2 -10,2 -4,0 -7,-1 -9,-2 -3,-2 -5,-5 -7,-8l-65 -118 8 0 0 143c0,5 -2,10 -5,13 -3,3 -7,5 -13,5z"/>
  <path class="fil0" d="M6118 7034c445,0 762,-299 762,-751l-272 0c0,299 -198,479 -490,479 -78,0 -153,-15 -213,-42 -104,-44 -231,-212 -268,-448 -23,-127 -27,-340 112,-545 108,45 239,71 399,71 191,0 456,-22 512,-243 26,-119 -45,-250 -179,-325 -71,-41 -165,-71 -273,-71 -153,0 -332,56 -508,213 -4,4 -7,4 -7,4 -83,-71 -113,-142 -116,-149l-258 89c4,11 52,146 194,269 -134,213 -190,467 -145,732 67,415 321,717 750,717zm176 -1591c48,15 74,38 89,52 -15,8 -37,15 -82,19 -130,15 -239,11 -328,-7 149,-94 269,-79 321,-64zm960 -989c-8,71 -239,1729 112,2614l272 -109c-325,-810 -97,-2449 -93,-2464l-291 -41zm1927 754l0 273c-19,392 -97,1228 -568,1288 -86,7 -153,-15 -209,-71 -127,-123 -209,-422 -228,-837 -11,-332 19,-631 19,-634l-292 -30c-15,130 -127,1296 295,1714 120,116 277,172 452,149 236,-30 407,-164 531,-355l0 363 295 0 0 -1569c3,-164 0,-280 0,-299l-295 8zm2210 1397c135,-329 98,-721 -108,-1027 -153,-228 -366,-363 -590,-363 -205,0 -399,94 -541,266 -4,3 -8,7 -12,11 -7,-303 0,-624 19,-885l-287 -19c-4,15 -30,426 -19,889 4,239 19,433 41,590 -49,258 -45,560 7,900l284 -45c-11,-56 -18,-112 -22,-164 190,183 422,287 631,287 37,0 75,-3 108,-11 150,-22 359,-119 489,-429zm-347 -867c150,221 179,519 82,751 -67,157 -157,243 -276,265 -161,26 -370,-71 -534,-246 -60,-68 -105,-228 -131,-430 49,-254 209,-575 508,-575 123,0 254,90 351,235zm2267 867c134,-329 97,-721 -108,-1027 -153,-228 -366,-363 -590,-363 -206,0 -400,94 -542,266 -4,3 -7,7 -11,11 -7,-303 0,-624 19,-885l-288 -19c-4,15 -30,426 -19,889 4,239 19,433 41,590 -48,258 -44,560 8,900l284 -45c-11,-56 -19,-112 -23,-164 191,183 422,287 632,287 37,0 74,-3 108,-11 149,-22 358,-119 489,-429zm-347 -867c149,221 179,519 82,751 -67,157 -157,243 -276,265 -161,26 -370,-71 -535,-246 -59,-68 -104,-228 -130,-430 48,-254 209,-575 508,-575 123,0 254,90 351,235zm870 15c-90,-127 -86,-138 -79,-153l-268 56c7,26 74,299 336,568 26,295 115,523 272,672 150,146 359,209 598,179 474,-60 590,-493 586,-717l-272 8c3,41 -4,396 -348,437 -157,18 -284,-15 -377,-105 -67,-63 -119,-161 -149,-280 33,11 74,19 115,22 307,30 587,-63 762,-254 131,-138 191,-321 165,-493 -49,-313 -329,-522 -676,-511 -333,0 -609,243 -665,571zm978 247c-78,82 -186,138 -313,160 -71,11 -146,15 -224,8 -68,-4 -127,-30 -187,-71 -4,-79 0,-161 7,-247 23,-280 236,-388 411,-396 172,-7 370,79 400,281 15,93 -19,186 -94,265zm1057 -628l-280 15 112 1696 262 -15c-56,-568 74,-1513 653,-1580l-33 -280c-348,41 -557,291 -688,594l-26 -430zm1554 1670c37,7 75,7 112,7 272,0 556,-138 676,-470 48,183 52,336 52,339l288 -11c-4,-26 -19,-485 -239,-810 26,-310 -26,-560 -157,-743 -127,-176 -329,-281 -579,-292 -504,-30 -702,396 -740,624l281 45c7,-41 82,-404 440,-385 310,15 445,202 471,493 -108,-60 -303,-86 -422,-86 -374,0 -777,228 -784,639 -8,332 239,597 601,650zm-318 -643c12,-250 280,-362 497,-362 146,0 306,30 411,142 -11,78 -30,161 -52,250 -75,288 -314,359 -497,333 -176,-27 -362,-150 -359,-363z"/>
  <path class="fil1" d="M1907 5736c0,-102 6,-179 58,-269 24,-40 49,-63 84,-90 7,-5 14,-9 21,-14 8,-5 39,-21 48,-23l7 69c10,75 25,113 52,179 4,9 7,16 12,25 4,9 9,16 13,25 31,58 69,107 111,157l106 104c27,24 70,55 99,75 44,32 79,47 121,72 48,29 160,72 216,91 160,53 352,80 520,94l146 7c53,-1 100,2 154,2 151,0 552,-16 708,10 39,6 66,13 99,25 14,6 28,14 38,24 7,6 10,10 13,19 16,45 -15,132 -33,174 -24,55 -34,74 -62,126 -47,86 -114,189 -176,262 -5,7 -10,10 -15,17l-84 74c-38,29 -71,49 -112,74 -188,113 -403,186 -630,186 -125,0 -229,-21 -327,-48 -48,-14 -95,-30 -139,-50l-65 -29c-66,-33 -117,-59 -180,-101l-198 -152c-36,-36 -72,-65 -110,-106l-210 -259c-30,-39 -102,-162 -123,-204 -51,-102 -72,-145 -111,-265 -25,-78 -51,-200 -51,-281zm2001 -1676l60 0c97,1 162,8 251,75 62,46 129,126 164,195 5,9 8,15 13,23 38,77 68,148 90,233 45,176 53,384 -30,549 -9,17 -15,29 -25,46 -26,43 -65,82 -105,112 -43,33 -92,56 -146,69 -122,30 -244,15 -361,-18 -61,-17 -125,-38 -181,-66 -28,-13 -57,-25 -85,-39 -54,-27 -106,-59 -160,-87 -27,-14 -51,-30 -79,-44l-121 -65c-13,-8 -27,-14 -40,-21 -28,-14 -55,-28 -83,-41l-127 -58c-9,-4 -15,-6 -23,-9 -38,-15 -72,-30 -112,-42 -17,-5 -31,-9 -48,-14 -19,-5 -139,-38 -150,-35 -7,2 -47,46 -56,54l-49 58c-32,41 -63,84 -87,130 124,0 214,15 328,43 13,4 24,7 38,11 59,16 122,32 183,45 26,5 53,8 78,14 0,15 -31,219 -34,226 -12,-3 -25,-3 -38,-6 -83,-13 -165,-36 -244,-57 -93,-26 -230,-57 -344,-45 -9,1 -38,-5 -38,8 0,140 61,263 158,361 12,11 21,20 32,32l52 44c7,5 11,9 18,14 175,131 370,194 596,226 307,43 591,25 902,25 138,0 341,2 462,56 14,6 25,11 39,18l35 22c24,18 39,32 60,55 30,34 63,102 63,165 0,78 -2,105 -23,180 -16,55 -41,107 -67,158 -84,170 -213,375 -363,487 -50,37 -101,70 -155,103 -32,19 -63,35 -97,52 -32,16 -64,33 -99,47 -108,43 -228,83 -348,97 -82,10 -122,12 -183,12l-63 0 -5 0c-112,0 -256,-28 -362,-64 -14,-5 -28,-9 -41,-14l-114 -44c-49,-21 -95,-46 -142,-71 -46,-23 -90,-52 -132,-81 -37,-24 -90,-60 -123,-90 -10,-8 -20,-16 -31,-24 -6,-5 -9,-8 -15,-13 -4,-3 -9,-7 -14,-11l-108 -102c-5,-5 -9,-9 -14,-13 -6,-5 -8,-6 -14,-12l-77 -83c-17,-18 -32,-37 -48,-57l-48 -60c-38,-51 -77,-101 -110,-155 -7,-12 -14,-20 -21,-32 -38,-62 -72,-124 -104,-189l-42 -89c-5,-12 -10,-25 -16,-39 -5,-13 -9,-25 -14,-38 -10,-26 -18,-51 -27,-78 -36,-108 -61,-226 -66,-342l0 -82c2,-38 6,-77 13,-114 13,-72 36,-136 70,-198 38,-71 94,-128 159,-175 54,-39 118,-67 183,-85 12,-3 42,-12 54,-12 7,-30 22,-56 33,-84 14,-33 43,-86 62,-114l47 -67c9,-11 18,-22 25,-33 -15,0 -20,-2 -34,-2 -12,0 -24,0 -35,0 -13,0 -17,-3 -32,-3l-172 -2 0 -229 58 0c58,0 122,0 178,5 12,1 25,-1 37,0 68,3 134,9 203,17 13,2 14,-3 23,-11 63,-57 164,-119 236,-167 55,-36 133,-74 190,-103l50 -23c51,-25 102,-44 155,-65l164 -56c18,-6 38,-10 57,-16 150,-44 348,-78 506,-78zm2 229c108,0 146,-14 223,80 62,76 106,177 130,273 22,89 25,127 25,220 0,106 -39,226 -133,267 -26,11 -39,13 -71,18 -51,7 -140,-5 -186,-18 -62,-18 -96,-31 -154,-55 -47,-19 -121,-56 -166,-81 -42,-23 -123,-71 -157,-88 -16,-8 -29,-16 -45,-24 -41,-23 -196,-105 -233,-120l-98 -44c-15,-6 -32,-14 -48,-20 -17,-7 -33,-13 -52,-19 -18,-7 -34,-12 -53,-19 -17,-5 -36,-13 -53,-17 8,-11 91,-59 108,-69 38,-22 77,-42 116,-62l61 -28c72,-30 107,-49 191,-77l65 -23c11,-3 21,-6 33,-10 45,-15 133,-36 179,-45 97,-19 216,-39 318,-39z"/>
  <g style="clip-path:url(#id0)">
   <g id="_2645839140112">
    <ellipse class="fil2" cx="4895" cy="8492" rx="2296" ry="2714"/>
    <ellipse class="fil3" cx="5054" cy="2389" rx="2296" ry="2714"/>
    <ellipse class="fil3" cx="-3505" cy="6025" rx="2296" ry="2714"/>
   </g>
  </g>
  <path class="fil4" d="M1907 5736c0,-102 6,-179 58,-269 24,-40 49,-63 84,-90 7,-5 14,-9 21,-14 8,-5 39,-21 48,-23l7 69c10,75 25,113 52,179 4,9 7,16 12,25 4,9 9,16 13,25 31,58 69,107 111,157l106 104c27,24 70,55 99,75 44,32 79,47 121,72 48,29 160,72 216,91 160,53 352,80 520,94l146 7c53,-1 100,2 154,2 151,0 552,-16 708,10 39,6 66,13 99,25 14,6 28,14 38,24 7,6 10,10 13,19 16,45 -15,132 -33,174 -24,55 -34,74 -62,126 -47,86 -114,189 -176,262 -5,7 -10,10 -15,17l-84 74c-38,29 -71,49 -112,74 -188,113 -403,186 -630,186 -125,0 -229,-21 -327,-48 -48,-14 -95,-30 -139,-50l-65 -29c-66,-33 -117,-59 -180,-101l-198 -152c-36,-36 -72,-65 -110,-106l-210 -259c-30,-39 -102,-162 -123,-204 -51,-102 -72,-145 -111,-265 -25,-78 -51,-200 -51,-281zm2001 -1676l60 0c97,1 162,8 251,75 62,46 129,126 164,195 5,9 8,15 13,23 38,77 68,148 90,233 45,176 53,384 -30,549 -9,17 -15,29 -25,46 -26,43 -65,82 -105,112 -43,33 -92,56 -146,69 -122,30 -244,15 -361,-18 -61,-17 -125,-38 -181,-66 -28,-13 -57,-25 -85,-39 -54,-27 -106,-59 -160,-87 -27,-14 -51,-30 -79,-44l-121 -65c-13,-8 -27,-14 -40,-21 -28,-14 -55,-28 -83,-41l-127 -58c-9,-4 -15,-6 -23,-9 -38,-15 -72,-30 -112,-42 -17,-5 -31,-9 -48,-14 -19,-5 -139,-38 -150,-35 -7,2 -47,46 -56,54l-49 58c-32,41 -63,84 -87,130 124,0 214,15 328,43 13,4 24,7 38,11 59,16 122,32 183,45 26,5 53,8 78,14 0,15 -31,219 -34,226 -12,-3 -25,-3 -38,-6 -83,-13 -165,-36 -244,-57 -93,-26 -230,-57 -344,-45 -9,1 -38,-5 -38,8 0,140 61,263 158,361 12,11 21,20 32,32l52 44c7,5 11,9 18,14 175,131 370,194 596,226 307,43 591,25 902,25 138,0 341,2 462,56 14,6 25,11 39,18l35 22c24,18 39,32 60,55 30,34 63,102 63,165 0,78 -2,105 -23,180 -16,55 -41,107 -67,158 -84,170 -213,375 -363,487 -50,37 -101,70 -155,103 -32,19 -63,35 -97,52 -32,16 -64,33 -99,47 -108,43 -228,83 -348,97 -82,10 -122,12 -183,12l-63 0 -5 0c-112,0 -256,-28 -362,-64 -14,-5 -28,-9 -41,-14l-114 -44c-49,-21 -95,-46 -142,-71 -46,-23 -90,-52 -132,-81 -37,-24 -90,-60 -123,-90 -10,-8 -20,-16 -31,-24 -6,-5 -9,-8 -15,-13 -4,-3 -9,-7 -14,-11l-108 -102c-5,-5 -9,-9 -14,-13 -6,-5 -8,-6 -14,-12l-77 -83c-17,-18 -32,-37 -48,-57l-48 -60c-38,-51 -77,-101 -110,-155 -7,-12 -14,-20 -21,-32 -38,-62 -72,-124 -104,-189l-42 -89c-5,-12 -10,-25 -16,-39 -5,-13 -9,-25 -14,-38 -10,-26 -18,-51 -27,-78 -36,-108 -61,-226 -66,-342l0 -82c2,-38 6,-77 13,-114 13,-72 36,-136 70,-198 38,-71 94,-128 159,-175 54,-39 118,-67 183,-85 12,-3 42,-12 54,-12 7,-30 22,-56 33,-84 14,-33 43,-86 62,-114l47 -67c9,-11 18,-22 25,-33 -15,0 -20,-2 -34,-2 -12,0 -24,0 -35,0 -13,0 -17,-3 -32,-3l-172 -2 0 -229 58 0c58,0 122,0 178,5 12,1 25,-1 37,0 68,3 134,9 203,17 13,2 14,-3 23,-11 63,-57 164,-119 236,-167 55,-36 133,-74 190,-103l50 -23c51,-25 102,-44 155,-65l164 -56c18,-6 38,-10 57,-16 150,-44 348,-78 506,-78zm2 229c108,0 146,-14 223,80 62,76 106,177 130,273 22,89 25,127 25,220 0,106 -39,226 -133,267 -26,11 -39,13 -71,18 -51,7 -140,-5 -186,-18 -62,-18 -96,-31 -154,-55 -47,-19 -121,-56 -166,-81 -42,-23 -123,-71 -157,-88 -16,-8 -29,-16 -45,-24 -41,-23 -196,-105 -233,-120l-98 -44c-15,-6 -32,-14 -48,-20 -17,-7 -33,-13 -52,-19 -18,-7 -34,-12 -53,-19 -17,-5 -36,-13 -53,-17 8,-11 91,-59 108,-69 38,-22 77,-42 116,-62l61 -28c72,-30 107,-49 191,-77l65 -23c11,-3 21,-6 33,-10 45,-15 133,-36 179,-45 97,-19 216,-39 318,-39z"/>
 </g>
</svg>
