<?xml version="1.0" encoding="UTF-8"?>
<!DOCTYPE svg PUBLIC "-//W3C//DTD SVG 1.1//EN" "http://www.w3.org/Graphics/SVG/1.1/DTD/svg11.dtd">
<!-- Creator: CorelDRAW X7 -->
<svg xmlns="http://www.w3.org/2000/svg" xml:space="preserve" width="203.2mm" height="127mm" version="1.1" style="shape-rendering:geometricPrecision; text-rendering:geometricPrecision; image-rendering:optimizeQuality; fill-rule:evenodd; clip-rule:evenodd"
viewBox="0 0 20320 12700"
 xmlns:xlink="http://www.w3.org/1999/xlink">
 <defs>
  <style type="text/css">
   <![CDATA[
    .fil3 {fill:none}
    .fil0 {fill:#05C213}
    .fil2 {fill:#A664FD}
    .fil1 {fill:#FFB800}
   ]]>
  </style>
   <clipPath id="id0">
    <path d="M6009 6500c0,-290 16,-507 164,-762 66,-113 138,-179 238,-254 19,-14 38,-25 59,-38 21,-15 110,-61 134,-66l20 194c30,214 72,321 148,506 11,27 21,46 33,70 13,26 26,47 39,71 85,165 195,304 312,445l301 295c75,66 198,153 280,212 125,89 222,132 341,203 135,82 454,203 612,256 452,150 995,227 1469,266l414 19c150,0 281,7 434,7 427,0 1561,-46 2004,28 109,19 186,36 277,73 42,16 81,38 110,65 19,18 27,29 36,54 45,129 -44,375 -95,494 -66,154 -93,209 -174,356 -134,241 -322,533 -496,741 -16,18 -30,28 -45,46l-235 211c-109,82 -202,139 -317,208 -534,321 -1139,527 -1784,527 -353,0 -647,-60 -924,-137 -135,-38 -269,-84 -392,-139l-184 -82c-188,-94 -330,-170 -508,-288l-561 -430c-101,-101 -203,-182 -310,-298l-596 -732c-84,-113 -288,-460 -347,-579 -144,-289 -202,-409 -313,-749 -71,-219 -144,-566 -144,-793zm5658 -4739l169 0c273,2 459,22 709,210 176,131 366,357 464,552 14,26 25,41 37,66 108,218 192,417 254,659 128,497 151,1085 -83,1551 -25,50 -44,83 -72,130 -73,123 -182,233 -296,318 -121,92 -261,157 -414,195 -343,85 -689,42 -1019,-51 -173,-48 -353,-109 -513,-186 -79,-38 -162,-71 -239,-110 -153,-77 -301,-168 -454,-246 -76,-40 -144,-85 -224,-125l-340 -185c-38,-22 -77,-40 -115,-59 -78,-39 -156,-78 -233,-117l-361 -163c-23,-10 -41,-17 -65,-26 -106,-42 -203,-84 -317,-117 -48,-15 -87,-27 -134,-41 -55,-15 -393,-108 -425,-99 -20,5 -134,130 -157,153l-141 164c-90,116 -177,238 -246,369 352,0 607,42 927,121 40,10 69,18 108,29 169,46 347,92 520,128 71,14 150,23 219,39 0,43 -87,620 -97,641 -33,-8 -68,-11 -106,-17 -234,-37 -466,-101 -691,-163 -263,-72 -651,-161 -971,-125 -26,3 -109,-15 -109,20 0,397 173,746 448,1021 32,32 59,59 91,91l145 126c19,15 33,25 52,39 494,371 1047,549 1686,638 867,122 1671,72 2550,72 391,0 964,5 1306,158 40,18 71,31 110,52l100 61c68,51 111,90 169,155 86,96 179,289 179,468 0,220 -7,297 -67,509 -44,155 -115,303 -187,447 -239,478 -604,1058 -1026,1375 -142,106 -289,200 -440,292 -91,54 -178,100 -274,148 -91,45 -182,92 -282,132 -303,121 -643,234 -981,274 -235,28 -345,33 -518,34l-179 0 -14 0c-317,0 -723,-80 -1024,-181 -39,-13 -80,-25 -117,-39l-321 -125c-138,-60 -270,-130 -403,-199 -128,-66 -253,-150 -373,-229 -105,-70 -253,-171 -347,-255 -28,-25 -56,-45 -86,-69 -17,-13 -26,-22 -43,-35 -13,-11 -27,-21 -39,-32l-308 -288c-14,-14 -24,-26 -39,-38 -17,-14 -23,-17 -39,-33l-216 -237c-50,-49 -93,-104 -138,-160l-136 -168c-108,-145 -216,-286 -310,-441 -20,-33 -39,-56 -60,-89 -106,-174 -203,-352 -294,-535l-117 -251c-14,-35 -31,-72 -46,-110 -16,-36 -27,-70 -41,-108 -29,-74 -51,-144 -76,-221 -102,-306 -172,-637 -186,-968l0 -230c5,-109 16,-217 35,-323 37,-204 103,-384 198,-560 109,-201 267,-361 451,-494 152,-110 333,-189 517,-241 34,-10 120,-34 152,-35 20,-84 63,-158 95,-236 38,-92 122,-242 176,-322l133 -191c23,-31 49,-62 69,-93 -43,0 -56,-6 -97,-6 -32,0 -65,1 -98,0 -37,0 -48,-7 -90,-7l-486 -6 0 -647 162 0c165,0 347,-1 506,12 33,3 70,-1 103,1 192,10 380,25 574,48 36,5 39,-7 65,-31 180,-162 465,-335 669,-471 153,-102 376,-210 537,-291l140 -67c144,-69 289,-125 439,-183l463 -159c51,-15 108,-29 162,-45 425,-125 984,-219 1431,-219zm7 647c303,0 412,-40 628,226 176,215 299,501 367,772 63,251 73,360 73,621 0,300 -110,641 -377,755 -73,32 -111,38 -202,51 -144,21 -394,-14 -526,-52 -174,-49 -271,-86 -435,-153 -132,-54 -341,-159 -469,-230 -118,-66 -348,-201 -445,-248 -44,-22 -81,-46 -125,-69 -118,-64 -555,-296 -659,-338l-277 -125c-44,-18 -90,-39 -137,-57 -48,-20 -93,-36 -146,-55 -52,-17 -96,-34 -149,-51 -49,-17 -104,-39 -151,-50 22,-30 258,-167 304,-194 108,-62 218,-119 330,-175l171 -81c205,-85 302,-138 541,-217l182 -64c32,-10 61,-18 94,-29 127,-42 376,-101 507,-127 275,-55 610,-110 901,-110z"/>
   </clipPath>
 </defs>
 <g id="Layer_x0020_1">
  <metadata id="CorelCorpID_0Corel-Layer"/>
  <path class="fil0" d="M6009 6500c0,-290 16,-507 164,-762 66,-113 138,-179 238,-254 19,-14 38,-25 59,-38 21,-15 110,-61 134,-66l20 194c30,214 72,321 148,506 11,27 21,46 33,70 13,26 26,47 39,71 85,165 195,304 312,445l301 295c75,66 198,153 280,212 125,89 222,132 341,203 135,82 454,203 612,256 452,150 995,227 1469,266l414 19c150,0 281,7 434,7 427,0 1561,-46 2004,28 109,19 186,36 277,73 42,16 81,38 110,65 19,18 27,29 36,54 45,129 -44,375 -95,494 -66,154 -93,209 -174,356 -134,241 -322,533 -496,741 -16,18 -30,28 -45,46l-235 211c-109,82 -202,139 -317,208 -534,321 -1139,527 -1784,527 -353,0 -647,-60 -924,-137 -135,-38 -269,-84 -392,-139l-184 -82c-188,-94 -330,-170 -508,-288l-561 -430c-101,-101 -203,-182 -310,-298l-596 -732c-84,-113 -288,-460 -347,-579 -144,-289 -202,-409 -313,-749 -71,-219 -144,-566 -144,-793zm5658 -4739l169 0c273,2 459,22 709,210 176,131 366,357 464,552 14,26 25,41 37,66 108,218 192,417 254,659 128,497 151,1085 -83,1551 -25,50 -44,83 -72,130 -73,123 -182,233 -296,318 -121,92 -261,157 -414,195 -343,85 -689,42 -1019,-51 -173,-48 -353,-109 -513,-186 -79,-38 -162,-71 -239,-110 -153,-77 -301,-168 -454,-246 -76,-40 -144,-85 -224,-125l-340 -185c-38,-22 -77,-40 -115,-59 -78,-39 -156,-78 -233,-117l-361 -163c-23,-10 -41,-17 -65,-26 -106,-42 -203,-84 -317,-117 -48,-15 -87,-27 -134,-41 -55,-15 -393,-108 -425,-99 -20,5 -134,130 -157,153l-141 164c-90,116 -177,238 -246,369 352,0 607,42 927,121 40,10 69,18 108,29 169,46 347,92 520,128 71,14 150,23 219,39 0,43 -87,620 -97,641 -33,-8 -68,-11 -106,-17 -234,-37 -466,-101 -691,-163 -263,-72 -651,-161 -971,-125 -26,3 -109,-15 -109,20 0,397 173,746 448,1021 32,32 59,59 91,91l145 126c19,15 33,25 52,39 494,371 1047,549 1686,638 867,122 1671,72 2550,72 391,0 964,5 1306,158 40,18 71,31 110,52l100 61c68,51 111,90 169,155 86,96 179,289 179,468 0,220 -7,297 -67,509 -44,155 -115,303 -187,447 -239,478 -604,1058 -1026,1375 -142,106 -289,200 -440,292 -91,54 -178,100 -274,148 -91,45 -182,92 -282,132 -303,121 -643,234 -981,274 -235,28 -345,33 -518,34l-179 0 -14 0c-317,0 -723,-80 -1024,-181 -39,-13 -80,-25 -117,-39l-321 -125c-138,-60 -270,-130 -403,-199 -128,-66 -253,-150 -373,-229 -105,-70 -253,-171 -347,-255 -28,-25 -56,-45 -86,-69 -17,-13 -26,-22 -43,-35 -13,-11 -27,-21 -39,-32l-308 -288c-14,-14 -24,-26 -39,-38 -17,-14 -23,-17 -39,-33l-216 -237c-50,-49 -93,-104 -138,-160l-136 -168c-108,-145 -216,-286 -310,-441 -20,-33 -39,-56 -60,-89 -106,-174 -203,-352 -294,-535l-117 -251c-14,-35 -31,-72 -46,-110 -16,-36 -27,-70 -41,-108 -29,-74 -51,-144 -76,-221 -102,-306 -172,-637 -186,-968l0 -230c5,-109 16,-217 35,-323 37,-204 103,-384 198,-560 109,-201 267,-361 451,-494 152,-110 333,-189 517,-241 34,-10 120,-34 152,-35 20,-84 63,-158 95,-236 38,-92 122,-242 176,-322l133 -191c23,-31 49,-62 69,-93 -43,0 -56,-6 -97,-6 -32,0 -65,1 -98,0 -37,0 -48,-7 -90,-7l-486 -6 0 -647 162 0c165,0 347,-1 506,12 33,3 70,-1 103,1 192,10 380,25 574,48 36,5 39,-7 65,-31 180,-162 465,-335 669,-471 153,-102 376,-210 537,-291l140 -67c144,-69 289,-125 439,-183l463 -159c51,-15 108,-29 162,-45 425,-125 984,-219 1431,-219zm7 647c303,0 412,-40 628,226 176,215 299,501 367,772 63,251 73,360 73,621 0,300 -110,641 -377,755 -73,32 -111,38 -202,51 -144,21 -394,-14 -526,-52 -174,-49 -271,-86 -435,-153 -132,-54 -341,-159 -469,-230 -118,-66 -348,-201 -445,-248 -44,-22 -81,-46 -125,-69 -118,-64 -555,-296 -659,-338l-277 -125c-44,-18 -90,-39 -137,-57 -48,-20 -93,-36 -146,-55 -52,-17 -96,-34 -149,-51 -49,-17 -104,-39 -151,-50 22,-30 258,-167 304,-194 108,-62 218,-119 330,-175l171 -81c205,-85 302,-138 541,-217l182 -64c32,-10 61,-18 94,-29 127,-42 376,-101 507,-127 275,-55 610,-110 901,-110z"/>
  <g style="clip-path:url(#id0)">
   <g id="_2645839102416">
    <ellipse class="fil1" cx="14457" cy="14293" rx="6493" ry="7674"/>
    <ellipse class="fil2" cx="14907" cy="-2967" rx="6493" ry="7674"/>
    <ellipse class="fil2" cx="-9295" cy="7318" rx="6493" ry="7674"/>
   </g>
  </g>
  <path class="fil3" d="M6009 6500c0,-290 16,-507 164,-762 66,-113 138,-179 238,-254 19,-14 38,-25 59,-38 21,-15 110,-61 134,-66l20 194c30,214 72,321 148,506 11,27 21,46 33,70 13,26 26,47 39,71 85,165 195,304 312,445l301 295c75,66 198,153 280,212 125,89 222,132 341,203 135,82 454,203 612,256 452,150 995,227 1469,266l414 19c150,0 281,7 434,7 427,0 1561,-46 2004,28 109,19 186,36 277,73 42,16 81,38 110,65 19,18 27,29 36,54 45,129 -44,375 -95,494 -66,154 -93,209 -174,356 -134,241 -322,533 -496,741 -16,18 -30,28 -45,46l-235 211c-109,82 -202,139 -317,208 -534,321 -1139,527 -1784,527 -353,0 -647,-60 -924,-137 -135,-38 -269,-84 -392,-139l-184 -82c-188,-94 -330,-170 -508,-288l-561 -430c-101,-101 -203,-182 -310,-298l-596 -732c-84,-113 -288,-460 -347,-579 -144,-289 -202,-409 -313,-749 -71,-219 -144,-566 -144,-793zm5658 -4739l169 0c273,2 459,22 709,210 176,131 366,357 464,552 14,26 25,41 37,66 108,218 192,417 254,659 128,497 151,1085 -83,1551 -25,50 -44,83 -72,130 -73,123 -182,233 -296,318 -121,92 -261,157 -414,195 -343,85 -689,42 -1019,-51 -173,-48 -353,-109 -513,-186 -79,-38 -162,-71 -239,-110 -153,-77 -301,-168 -454,-246 -76,-40 -144,-85 -224,-125l-340 -185c-38,-22 -77,-40 -115,-59 -78,-39 -156,-78 -233,-117l-361 -163c-23,-10 -41,-17 -65,-26 -106,-42 -203,-84 -317,-117 -48,-15 -87,-27 -134,-41 -55,-15 -393,-108 -425,-99 -20,5 -134,130 -157,153l-141 164c-90,116 -177,238 -246,369 352,0 607,42 927,121 40,10 69,18 108,29 169,46 347,92 520,128 71,14 150,23 219,39 0,43 -87,620 -97,641 -33,-8 -68,-11 -106,-17 -234,-37 -466,-101 -691,-163 -263,-72 -651,-161 -971,-125 -26,3 -109,-15 -109,20 0,397 173,746 448,1021 32,32 59,59 91,91l145 126c19,15 33,25 52,39 494,371 1047,549 1686,638 867,122 1671,72 2550,72 391,0 964,5 1306,158 40,18 71,31 110,52l100 61c68,51 111,90 169,155 86,96 179,289 179,468 0,220 -7,297 -67,509 -44,155 -115,303 -187,447 -239,478 -604,1058 -1026,1375 -142,106 -289,200 -440,292 -91,54 -178,100 -274,148 -91,45 -182,92 -282,132 -303,121 -643,234 -981,274 -235,28 -345,33 -518,34l-179 0 -14 0c-317,0 -723,-80 -1024,-181 -39,-13 -80,-25 -117,-39l-321 -125c-138,-60 -270,-130 -403,-199 -128,-66 -253,-150 -373,-229 -105,-70 -253,-171 -347,-255 -28,-25 -56,-45 -86,-69 -17,-13 -26,-22 -43,-35 -13,-11 -27,-21 -39,-32l-308 -288c-14,-14 -24,-26 -39,-38 -17,-14 -23,-17 -39,-33l-216 -237c-50,-49 -93,-104 -138,-160l-136 -168c-108,-145 -216,-286 -310,-441 -20,-33 -39,-56 -60,-89 -106,-174 -203,-352 -294,-535l-117 -251c-14,-35 -31,-72 -46,-110 -16,-36 -27,-70 -41,-108 -29,-74 -51,-144 -76,-221 -102,-306 -172,-637 -186,-968l0 -230c5,-109 16,-217 35,-323 37,-204 103,-384 198,-560 109,-201 267,-361 451,-494 152,-110 333,-189 517,-241 34,-10 120,-34 152,-35 20,-84 63,-158 95,-236 38,-92 122,-242 176,-322l133 -191c23,-31 49,-62 69,-93 -43,0 -56,-6 -97,-6 -32,0 -65,1 -98,0 -37,0 -48,-7 -90,-7l-486 -6 0 -647 162 0c165,0 347,-1 506,12 33,3 70,-1 103,1 192,10 380,25 574,48 36,5 39,-7 65,-31 180,-162 465,-335 669,-471 153,-102 376,-210 537,-291l140 -67c144,-69 289,-125 439,-183l463 -159c51,-15 108,-29 162,-45 425,-125 984,-219 1431,-219zm7 647c303,0 412,-40 628,226 176,215 299,501 367,772 63,251 73,360 73,621 0,300 -110,641 -377,755 -73,32 -111,38 -202,51 -144,21 -394,-14 -526,-52 -174,-49 -271,-86 -435,-153 -132,-54 -341,-159 -469,-230 -118,-66 -348,-201 -445,-248 -44,-22 -81,-46 -125,-69 -118,-64 -555,-296 -659,-338l-277 -125c-44,-18 -90,-39 -137,-57 -48,-20 -93,-36 -146,-55 -52,-17 -96,-34 -149,-51 -49,-17 -104,-39 -151,-50 22,-30 258,-167 304,-194 108,-62 218,-119 330,-175l171 -81c205,-85 302,-138 541,-217l182 -64c32,-10 61,-18 94,-29 127,-42 376,-101 507,-127 275,-55 610,-110 901,-110z"/>
 </g>
</svg>
