<svg width="89" height="89" viewBox="0 0 89 89" fill="none" xmlns="http://www.w3.org/2000/svg">
<g id="Frame" clip-path="url(#clip0_75_209)">
<path id="Vector" d="M77.8537 55.4962V66.5053H88.8629V73.8448H77.8537V84.854H70.5142V73.8448H59.5051V66.5053H70.5142V55.4962H77.8537ZM77.883 11.4595C79.894 11.4595 81.5234 13.0925 81.5234 15.1035V48.1567H74.184V18.7989H15.4684V70.1714L52.1656 33.4778L63.1748 44.487V54.8687L52.1656 43.8595L25.8427 70.1751H52.1656V77.5145H11.7693C10.8035 77.5135 9.87752 77.1292 9.19492 76.4459C8.51233 75.7626 8.12891 74.8363 8.12891 73.8705V15.1035C8.13562 14.1398 8.5212 13.2173 9.20235 12.5355C9.8835 11.8537 10.8055 11.4672 11.7693 11.4595H77.883ZM30.1473 26.1384C32.0938 26.1384 33.9606 26.9116 35.337 28.288C36.7134 29.6645 37.4867 31.5313 37.4867 33.4778C37.4867 35.4244 36.7134 37.2912 35.337 38.6676C33.9606 40.044 32.0938 40.8173 30.1473 40.8173C28.2007 40.8173 26.3339 40.044 24.9575 38.6676C23.5811 37.2912 22.8078 35.4244 22.8078 33.4778C22.8078 31.5313 23.5811 29.6645 24.9575 28.288C26.3339 26.9116 28.2007 26.1384 30.1473 26.1384Z" fill="#9400AC"/>
</g>
<defs>
<clipPath id="clip0_75_209">
<rect width="88.0734" height="88.0734" fill="white" transform="translate(0.789062 0.450195)"/>
</clipPath>
</defs>
</svg>
