<svg width="20" height="20" viewBox="0 0 20 20" fill="none" xmlns="http://www.w3.org/2000/svg">
<path fill-rule="evenodd" clip-rule="evenodd" d="M2.5 7.5C2.5 7.33424 2.56585 7.17527 2.68306 7.05806C2.80027 6.94085 2.95924 6.875 3.125 6.875H16.875C17.0408 6.875 17.1997 6.94085 17.3169 7.05806C17.4342 7.17527 17.5 7.33424 17.5 7.5C17.5 7.66576 17.4342 7.82473 17.3169 7.94194C17.1997 8.05915 17.0408 8.125 16.875 8.125H3.125C2.95924 8.125 2.80027 8.05915 2.68306 7.94194C2.56585 7.82473 2.5 7.66576 2.5 7.5ZM2.5 13.125C2.5 12.9592 2.56585 12.8003 2.68306 12.6831C2.80027 12.5658 2.95924 12.5 3.125 12.5H16.875C17.0408 12.5 17.1997 12.5658 17.3169 12.6831C17.4342 12.8003 17.5 12.9592 17.5 13.125C17.5 13.2908 17.4342 13.4497 17.3169 13.5669C17.1997 13.6842 17.0408 13.75 16.875 13.75H3.125C2.95924 13.75 2.80027 13.6842 2.68306 13.5669C2.56585 13.4497 2.5 13.2908 2.5 13.125Z" fill="black"/>
</svg>
