<svg width="16" height="15" viewBox="0 0 16 15" fill="none" xmlns="http://www.w3.org/2000/svg">
<path d="M8.72259 10.2901C8.72259 10.9651 8.17509 11.5126 7.50009 11.5126C7.02009 11.5126 6.6076 11.2351 6.4126 10.8376L8.04759 9.20264C8.44509 9.39764 8.72259 9.81013 8.72259 10.2901Z" fill="#58595B"/>
<path d="M4.01248 5.58057C0.937495 5.58057 0 6.51806 0 9.59305V10.988C0 12.5255 0.232499 13.5305 0.854996 14.1455L5.32497 9.67555C5.53497 8.91805 6.12747 8.32555 6.88497 8.11555L9.41995 5.58057H4.01248Z" fill="#58595B"/>
<path d="M12.0968 2.90249L11.1518 3.84748C11.1218 2.51249 10.6193 1.04999 7.49928 1.04999C4.4618 1.04999 3.8393 2.51249 3.8393 4.70998V5.58747C3.4568 5.58747 3.10431 5.60997 2.78931 5.64747V4.70998C2.78931 2.68499 3.2768 0 7.49928 0C10.1543 0 11.6993 0.974995 12.0968 2.90249Z" fill="#58595B"/>
<path d="M15.0013 9.59221V10.9872C15.0013 14.0622 14.0638 14.9997 10.9889 14.9997H4.0139C3.3839 14.9997 2.8364 14.9622 2.37891 14.8722L5.64889 11.6022C5.8598 11.8967 6.13785 12.1367 6.46 12.3024C6.78215 12.468 7.13914 12.5545 7.50138 12.5547C8.75387 12.5547 9.76637 11.5422 9.76637 10.2897C9.76637 9.52471 9.39137 8.85721 8.81387 8.43721L11.6564 5.59473C14.1988 5.73723 15.0013 6.74972 15.0013 9.59221Z" fill="#58595B"/>
<path d="M14.8266 0.171679C14.6016 -0.05332 14.2341 -0.05332 14.0091 0.171679L0.171679 14.0166C-0.05332 14.2416 -0.05332 14.6091 0.171679 14.8341C0.225071 14.8873 0.288511 14.9294 0.35831 14.9578C0.428108 14.9863 0.50287 15.0006 0.578247 14.9999C0.653623 14.9992 0.728108 14.9835 0.797367 14.9538C0.866626 14.924 0.929277 14.8808 0.981675 14.8266L14.8266 0.981675C15.0591 0.756676 15.0591 0.396678 14.8266 0.171679Z" fill="#58595B"/>
</svg>
