<svg width="147" height="147" viewBox="0 0 147 147" fill="none" xmlns="http://www.w3.org/2000/svg">
<path d="M73.5 0C33.0015 0 0 33.0015 0 73.5C0 113.999 33.0015 147 73.5 147C113.999 147 147 113.999 147 73.5C147 33.0015 113.999 0 73.5 0ZM108.633 56.595L66.9585 98.2695C65.9295 99.2985 64.533 99.8865 63.063 99.8865C61.593 99.8865 60.1965 99.2985 59.1675 98.2695L38.367 77.469C36.2355 75.3375 36.2355 71.8095 38.367 69.678C40.4985 67.5465 44.0265 67.5465 46.158 69.678L63.063 86.583L100.842 48.804C102.974 46.6725 106.502 46.6725 108.633 48.804C110.765 50.9355 110.765 54.39 108.633 56.595Z" fill="#9400AC"/>
</svg>
