<svg width="27" height="27" viewBox="0 0 27 27" fill="none" xmlns="http://www.w3.org/2000/svg">
<g id="Group">
<path id="Vector" d="M16.6623 10.3376L10.3374 16.6625C9.5249 15.85 9.0249 14.7375 9.0249 13.5C9.0249 11.025 11.0248 9.02505 13.4998 9.02505C14.7373 9.02505 15.8498 9.52505 16.6623 10.3376Z" stroke="#292D32" stroke-width="1.875" stroke-linecap="round" stroke-linejoin="round"/>
<path id="Vector_2" d="M20.7753 5.71247C18.5878 4.06247 16.0878 3.16248 13.5003 3.16248C9.08778 3.16248 4.97529 5.76247 2.11279 10.2625C0.987793 12.025 0.987793 14.9875 2.11279 16.75C3.10029 18.3 4.25029 19.6375 5.50029 20.7125" stroke="#292D32" stroke-width="1.875" stroke-linecap="round" stroke-linejoin="round"/>
<path id="Vector_3" d="M9.0249 22.9126C10.4499 23.5126 11.9623 23.8376 13.4998 23.8376C17.9123 23.8376 22.0248 21.2376 24.8873 16.7376C26.0123 14.9751 26.0123 12.0126 24.8873 10.25C24.4748 9.60004 24.0248 8.98754 23.5623 8.41254" stroke="#292D32" stroke-width="1.875" stroke-linecap="round" stroke-linejoin="round"/>
<path id="Vector_4" d="M17.8873 14.3749C17.5623 16.1374 16.1248 17.5749 14.3623 17.8999" stroke="#292D32" stroke-width="1.875" stroke-linecap="round" stroke-linejoin="round"/>
<path id="Vector_5" d="M10.3375 16.6625L1 26" stroke="#292D32" stroke-width="1.875" stroke-linecap="round" stroke-linejoin="round"/>
<path id="Vector_6" d="M26.0001 1L16.6626 10.3375" stroke="#292D32" stroke-width="1.875" stroke-linecap="round" stroke-linejoin="round"/>
</g>
</svg>
