<svg width="26" height="23" viewBox="0 0 26 23" fill="none" xmlns="http://www.w3.org/2000/svg">
<g id="Group 54">
<path id="Vector" d="M17.3906 11.1543C17.3906 13.5825 15.4285 15.5447 13.0003 15.5447C10.5721 15.5447 8.60986 13.5825 8.60986 11.1543C8.60986 8.72613 10.5721 6.76395 13.0003 6.76395C15.4285 6.76395 17.3906 8.72613 17.3906 11.1543Z" stroke="black" stroke-width="1.5" stroke-linecap="round" stroke-linejoin="round"/>
<path id="Vector_2" d="M13 21.2964C17.3291 21.2964 21.3638 18.7455 24.1722 14.3306C25.2759 12.6014 25.2759 9.69494 24.1722 7.96576C21.3638 3.55084 17.3291 1 13 1C8.67092 1 4.63618 3.55084 1.8278 7.96576C0.724067 9.69494 0.724067 12.6014 1.8278 14.3306C4.63618 18.7455 8.67092 21.2964 13 21.2964Z" stroke="black" stroke-width="1.5" stroke-linecap="round" stroke-linejoin="round"/>
</g>
</svg>
