<svg width="25" height="24" viewBox="0 0 25 24" fill="none" xmlns="http://www.w3.org/2000/svg">
<g id="Google - Original" clip-path="url(#clip0_20_128)">
<path id="Vector" d="M24.7563 12.2764C24.7563 11.4607 24.6874 10.6406 24.5404 9.83807H12.75V14.4591H19.5018C19.2216 15.9494 18.3214 17.2678 17.0032 18.1056V21.1039H21.0313C23.3967 19.0139 24.7563 15.9274 24.7563 12.2764Z" fill="#4285F4"/>
<path id="Vector_2" d="M12.7499 24.0008C16.1212 24.0008 18.9643 22.9382 21.0358 21.1039L17.0077 18.1055C15.887 18.8375 14.4401 19.252 12.7545 19.252C9.49343 19.252 6.72841 17.1399 5.73631 14.3003H1.57959V17.3912C3.70158 21.4434 8.02365 24.0008 12.7499 24.0008Z" fill="#34A853"/>
<path id="Vector_3" d="M5.73181 14.3003C5.2082 12.8099 5.2082 11.1961 5.73181 9.70575V6.61481H1.57969C-0.19323 10.0056 -0.19323 14.0004 1.57969 17.3912L5.73181 14.3003Z" fill="#FBBC04"/>
<path id="Vector_4" d="M12.7499 4.74966C14.532 4.7232 16.2544 5.36697 17.5451 6.54867L21.1139 3.12262C18.8541 1.0855 15.8548 -0.034466 12.7499 0.000808666C8.02365 0.000808666 3.70158 2.55822 1.57959 6.61481L5.73171 9.70575C6.71922 6.86173 9.48883 4.74966 12.7499 4.74966Z" fill="#EA4335"/>
</g>
<defs>
<clipPath id="clip0_20_128">
<rect width="25" height="24" fill="white"/>
</clipPath>
</defs>
</svg>
