<svg width="11" height="15" viewBox="0 0 11 15" fill="none" xmlns="http://www.w3.org/2000/svg">
<path d="M5.16008 6.71661C5.08437 6.70903 4.99351 6.70903 4.91022 6.71661C4.04115 6.6871 3.21768 6.32049 2.61421 5.6944C2.01074 5.06832 1.67465 4.23193 1.67712 3.36236C1.67712 1.50731 3.17631 0.000546314 5.03894 0.000546314C5.47992 -0.00740828 5.91815 0.0715731 6.32861 0.232981C6.73907 0.394388 7.11372 0.635062 7.43116 0.941259C7.74861 1.24746 8.00264 1.61318 8.17875 2.01755C8.35485 2.42192 8.44959 2.85702 8.45754 3.298C8.4655 3.73899 8.38652 4.17722 8.22511 4.58768C8.0637 4.99814 7.82303 5.37278 7.51683 5.69023C7.21063 6.00768 6.84491 6.26171 6.44054 6.43781C6.03616 6.61392 5.60107 6.70865 5.16008 6.71661ZM1.37426 9.51055C-0.458085 10.7372 -0.458085 12.7361 1.37426 13.9551C3.45646 15.3483 6.87128 15.3483 8.95349 13.9551C10.7858 12.7285 10.7858 10.7296 8.95349 9.51055C6.87885 8.12494 3.46403 8.12494 1.37426 9.51055Z" fill="#58595B"/>
</svg>
