<svg width="20" height="20" viewBox="0 0 20 20" fill="none" xmlns="http://www.w3.org/2000/svg">
<path d="M18.125 17.2412L13.405 12.5212C14.5393 11.1596 15.1049 9.41302 14.9842 7.64494C14.8635 5.87685 14.0658 4.22336 12.757 3.02844C11.4483 1.83352 9.72922 1.18917 7.95748 1.22942C6.18574 1.26968 4.49773 1.99145 3.2446 3.24458C1.99147 4.49772 1.2697 6.18573 1.22944 7.95747C1.18918 9.72921 1.83354 11.4483 3.02846 12.757C4.22338 14.0658 5.87687 14.8635 7.64495 14.9842C9.41303 15.1048 11.1596 14.5392 12.5213 13.405L17.2413 18.125L18.125 17.2412ZM2.50001 8.125C2.50001 7.01248 2.82991 5.92494 3.44799 4.99991C4.06608 4.07489 4.94458 3.35392 5.97242 2.92817C7.00025 2.50243 8.13125 2.39104 9.22239 2.60808C10.3135 2.82512 11.3158 3.36085 12.1025 4.14752C12.8892 4.93419 13.4249 5.93647 13.6419 7.02761C13.859 8.11876 13.7476 9.24976 13.3218 10.2776C12.8961 11.3054 12.1751 12.1839 11.2501 12.802C10.3251 13.4201 9.23753 13.75 8.12501 13.75C6.63368 13.7483 5.2039 13.1552 4.14936 12.1006C3.09483 11.0461 2.50167 9.61633 2.50001 8.125Z" fill="black"/>
</svg>
