<svg width="100" height="95" viewBox="0 0 100 95" fill="none" xmlns="http://www.w3.org/2000/svg">
<path d="M100 57.39V80C100 83.9782 98.4196 87.7936 95.6066 90.6066C92.7936 93.4196 88.9782 95 85 95H15C11.0218 95 7.20644 93.4196 4.3934 90.6066C1.58035 87.7936 0 83.9782 0 80V57.39L2.765 58.775C17.4195 66.1565 33.6001 70.0006 50.0087 69.9988C66.4173 69.9971 82.597 66.1496 97.25 58.765L100 57.39ZM60 0C63.9782 0 67.7936 1.58035 70.6066 4.3934C73.4196 7.20644 75 11.0218 75 15V20H85C88.9782 20 92.7936 21.5804 95.6066 24.3934C98.4196 27.2064 100 31.0218 100 35V46.21L92.765 49.83C79.8199 56.3548 65.5534 59.8309 51.0578 59.9921C36.5622 60.1533 22.222 56.9953 9.135 50.76L5.9 49.16L0 46.21V35C0 31.0218 1.58035 27.2064 4.3934 24.3934C7.20644 21.5804 11.0218 20 15 20H25V15C25 11.0218 26.5804 7.20644 29.3934 4.3934C32.2064 1.58035 36.0218 0 40 0H60ZM50 40C48.6739 40 47.4021 40.5268 46.4645 41.4645C45.5268 42.4021 45 43.6739 45 45C44.9967 45.6566 45.1228 46.3074 45.371 46.9153C45.6193 47.5232 45.9848 48.0762 46.4468 48.5429C46.9088 49.0095 47.4581 49.3805 48.0635 49.6348C48.6689 49.8891 49.3184 50.0217 49.975 50.025C50.6316 50.0283 51.2824 49.9022 51.8903 49.654C52.4982 49.4057 53.0512 49.0402 53.5179 48.5782C53.9845 48.1162 54.3555 47.5669 54.6098 46.9615C54.8641 46.3561 54.9967 45.7066 55 45.05C55 42.24 52.76 40 50 40ZM60 10H40C38.6739 10 37.4021 10.5268 36.4645 11.4645C35.5268 12.4021 35 13.6739 35 15V20H65V15C65 13.6739 64.4732 12.4021 63.5355 11.4645C62.5979 10.5268 61.3261 10 60 10Z" fill="#92E491" style="fill:#92E491;fill:color(display-p3 0.5725 0.8941 0.5686);fill-opacity:1;"/>
</svg>
