<svg width="100" height="93" viewBox="0 0 100 93" fill="none" xmlns="http://www.w3.org/2000/svg">
<path d="M48.1795 91.8465L48.1436 91.8311L48.0308 91.7696C47.3707 91.4064 46.7159 91.0337 46.0667 90.6516C38.2606 86.0131 30.9655 80.5642 24.3026 74.3952C12.5026 63.385 0 47.0465 0 26.9234C0 11.9081 12.6359 0.000363852 27.8872 0.000363852C32.1269 -0.0204024 36.3168 0.914931 40.1452 2.7368C43.9737 4.55867 47.3421 7.2202 50 10.5234C52.6585 7.21952 56.0277 4.55758 59.8571 2.73568C63.6864 0.913787 67.8773 -0.0211746 72.118 0.000363852C87.3641 0.000363852 100 11.9081 100 26.9234C100 47.0516 87.4974 63.3901 75.6974 74.3901C69.0346 80.5592 61.7395 86.0082 53.9333 90.6465C53.2841 91.0303 52.6293 91.4047 51.9692 91.7696L51.8564 91.8311L51.8205 91.8516L51.8051 91.8568C51.249 92.1513 50.6293 92.3053 50 92.3053C49.3707 92.3053 48.751 92.1513 48.1949 91.8568L48.1795 91.8465Z" fill="#F7CB4D" style="fill:#F7CB4D;fill:color(display-p3 0.9686 0.7961 0.3020);fill-opacity:1;"/>
<path d="M85.7029 26.7981C85.7029 23.3421 84.33 20.0276 81.8862 17.5838C79.4424 15.14 76.1279 13.7671 72.6719 13.7671" stroke="#FDF2F6" style="stroke:#FDF2F6;stroke:color(display-p3 0.9922 0.9490 0.9647);stroke-opacity:1;" stroke-width="9.77327" stroke-linecap="round" stroke-linejoin="round"/>
</svg>
