<svg width="120" height="120" viewBox="0 0 120 120" fill="none" xmlns="http://www.w3.org/2000/svg">
<path d="M74.999 90.0127C74.999 65.0127 64.999 25.0127 70.8158 9.85645C89.999 15.0127 57.5315 27.9085 57.5315 49.9999C57.5315 72.0913 66.2487 90.0127 74.999 90.0127Z" fill="#D2B1FF" style="fill:#D2B1FF;fill:color(display-p3 0.8235 0.6941 1.0000);fill-opacity:1;"/>
<path d="M70.8158 9.85645C59.999 15.0127 33.0481 21.7464 18.4163 29.1264C11.7143 32.5064 7.44043 40.7464 7.44043 49.8564C7.44043 58.9664 11.7183 67.2064 18.4163 70.5864C33.0481 77.9664 61.7147 73.6917 74.999 90.0127" fill="#D2B1FF" style="fill:#D2B1FF;fill:color(display-p3 0.8235 0.6941 1.0000);fill-opacity:1;"/>
<path d="M90 90C101.046 90 110 72.0914 110 50C110 27.9086 101.046 10 90 10M90 90C78.9543 90 70 72.0914 70 50C70 27.9086 78.9543 10 90 10M90 90C74.485 90 42.325 78.11 23.855 70.73C15.4 67.35 10 59.11 10 50C10 40.89 15.395 32.65 23.855 29.27C42.325 21.89 74.485 10 90 10M55 110L45.285 104.65C40.0984 101.78 35.8913 97.4204 33.2068 92.1351C30.5223 86.8499 29.4837 80.8814 30.225 75" stroke="#D2B1FF" style="stroke:#D2B1FF;stroke:color(display-p3 0.8235 0.6941 1.0000);stroke-opacity:1;" stroke-width="7.5" stroke-linecap="round" stroke-linejoin="round"/>
</svg>
