<svg width="100" height="100" viewBox="0 0 100 100" fill="none" xmlns="http://www.w3.org/2000/svg">
<path d="M61.92 61.9002C64.5589 69.7891 66.3294 77.9423 67.2 86.2152L67.52 89.4352L68.15 96.5902C60.6891 99.4963 52.6393 100.568 44.6779 99.7154C36.7165 98.8627 29.0763 96.1104 22.4 91.6902L32.8 81.2552L34.03 80.0552C42.995 71.4152 51.08 65.6802 60.965 62.2252L61.92 61.9002ZM92.37 57.9852L94.44 58.0002L99.345 58.0702C98.2383 64.8402 95.7498 71.31 92.0346 77.0768C88.3194 82.8435 83.457 87.7838 77.75 91.5902L77.48 88.5652C76.58 78.2802 74.73 68.7752 71.665 59.4952C76.885 58.5852 82.68 58.1052 89.31 58.0052L92.365 57.9852H92.37ZM53.025 42.0802C54.9422 45.4923 56.6975 48.9928 58.285 52.5702C46.905 56.4202 37.575 62.8352 27.565 72.4052L25.79 74.1252L14.61 85.3252C5.64887 76.3471 0.43518 64.2985 0.0250006 51.6202L0 50.0002L0.0199997 48.7502H5.5L7.835 48.7402C25.57 48.6102 39.615 46.9052 52.525 42.2652L53.025 42.0802ZM99.965 48.0902L92.39 47.9902C83.09 47.9752 75.14 48.6102 68.065 50.0002C66.3292 45.9377 64.3884 41.9659 62.25 38.1002C69.215 34.6252 76.035 30.1152 83.145 24.3502L85.285 22.5802L89.365 19.1702C95.4574 26.9505 99.1077 36.3617 99.855 46.2152L99.965 48.0902ZM26.65 5.79019L32.98 13.4002C38.705 20.3902 43.585 26.9652 47.725 33.3252C36.425 37.1552 24.03 38.5852 8.31 38.7302L5.5 38.7502H1.28C2.89482 31.7565 5.99649 25.1924 10.3742 19.5042C14.7518 13.8159 20.3029 9.14194 26.65 5.79019ZM75 6.70019C77.65 8.23019 80.13 9.98519 82.415 11.9302L77.29 16.2152C70.395 21.8552 63.85 26.1802 57.12 29.4602C52.67 22.4702 47.405 15.2802 41.21 7.67019L38.84 4.80019L36.415 1.88019C42.8424 0.0659594 49.5682 -0.442232 56.1953 0.385614C62.8223 1.21346 69.2164 3.36057 75 6.70019Z" fill="#F7AAC5" style="fill:#F7AAC5;fill:color(display-p3 0.9686 0.6667 0.7725);fill-opacity:1;"/>
</svg>
