<svg width="86" height="101" viewBox="0 0 86 101" fill="none" xmlns="http://www.w3.org/2000/svg">
<path d="M58.535 11.5264L73.535 26.5264C74.4724 27.4641 74.9989 28.7356 74.9989 30.0614C74.9989 31.3873 74.4724 32.6588 73.535 33.5964L65.77 41.3714C71.9245 48.0649 75.2325 56.8909 74.9936 65.9807C74.7547 75.0705 70.9876 83.7105 64.49 90.0714L75 90.0614C76.3261 90.0614 77.5978 90.5882 78.5355 91.5259C79.4732 92.4636 80 93.7354 80 95.0614C80 96.3875 79.4732 97.6593 78.5355 98.597C77.5978 99.5347 76.3261 100.061 75 100.061H5C3.67392 100.061 2.40215 99.5347 1.46447 98.597C0.526785 97.6593 0 96.3875 0 95.0614C0 93.7354 0.526785 92.4636 1.46447 91.5259C2.40215 90.5882 3.67392 90.0614 5 90.0614H10V85.0614C8.67392 85.0614 7.40215 84.5347 6.46447 83.597C5.52678 82.6593 5 81.3875 5 80.0614C5 78.7354 5.52678 77.4636 6.46447 76.5259C7.40215 75.5882 8.67392 75.0614 10 75.0614H20C21.3261 75.0614 22.5978 75.5882 23.5355 76.5259C24.4732 77.4636 25 78.7354 25 80.0614C25 81.3875 24.4732 82.6593 23.5355 83.597C22.5978 84.5347 21.3261 85.0614 20 85.0614V90.0614H40C44.8206 90.0624 49.5387 88.6696 53.5859 86.0509C57.6332 83.4322 60.8371 79.6992 62.8116 75.3015C64.7861 70.9039 65.4471 66.0291 64.715 61.2644C63.9828 56.4998 61.8888 52.0484 58.685 48.4464L43.535 63.5964C42.5974 64.5338 41.3258 65.0604 40 65.0604C38.6742 65.0604 37.4026 64.5338 36.465 63.5964L32.5 59.6364L28.535 63.5964C28.0738 64.074 27.522 64.4549 26.912 64.7169C26.302 64.979 25.6459 65.1169 24.982 65.1227C24.3181 65.1285 23.6597 65.0019 23.0452 64.7505C22.4307 64.4991 21.8725 64.1279 21.403 63.6584C20.9336 63.1889 20.5623 62.6307 20.3109 62.0162C20.0595 61.4017 19.933 60.7433 19.9387 60.0794C19.9445 59.4155 20.0824 58.7594 20.3445 58.1494C20.6065 57.5394 20.9874 56.9877 21.465 56.5264L25.425 52.5614L21.465 48.5964C20.5276 47.6588 20.0011 46.3873 20.0011 45.0614C20.0011 43.7356 20.5276 42.4641 21.465 41.5264L51.465 11.5264C52.4026 10.5891 53.6742 10.0625 55 10.0625C56.3258 10.0625 57.5974 10.5891 58.535 11.5264ZM68.535 1.52644L83.535 16.5264C84.0126 16.9877 84.3934 17.5394 84.6555 18.1494C84.9175 18.7594 85.0555 19.4155 85.0612 20.0794C85.067 20.7433 84.9405 21.4017 84.6891 22.0162C84.4377 22.6307 84.0664 23.189 83.597 23.6584C83.1275 24.1279 82.5692 24.4991 81.9548 24.7505C81.3403 25.002 80.6819 25.1285 80.018 25.1227C79.3541 25.1169 78.698 24.979 78.088 24.7169C77.478 24.4549 76.9262 24.074 76.465 23.5964L61.465 8.59644C60.9874 8.13521 60.6065 7.58348 60.3445 6.97346C60.0824 6.36344 59.9445 5.70734 59.9387 5.04345C59.933 4.37955 60.0595 3.72115 60.3109 3.10667C60.5623 2.49219 60.9336 1.93393 61.403 1.46447C61.8725 0.995003 62.4307 0.623737 63.0452 0.372333C63.6597 0.120928 64.3181 -0.0055803 64.982 0.000188784C65.6459 0.00595786 66.302 0.143889 66.912 0.405934C67.522 0.667979 68.0738 1.04889 68.535 1.52644Z" fill="#F7CB4D" style="fill:#F7CB4D;fill:color(display-p3 0.9686 0.7961 0.3020);fill-opacity:1;"/>
</svg>
